<?xml version="1.0" encoding="UTF-8"?>
<!DOCTYPE svg
PUBLIC "-//W3C//DTD SVG 1.1//EN"
       "http://www.w3.org/Graphics/SVG/1.1/DTD/svg11.dtd">
<svg viewBox="53 11 880 634" width="827px" height="623px" xmlns="http://www.w3.org/2000/svg" version="1.1">
   <line x1="690" y1="284" x2="680" y2="284" style="stroke:#0b0;stroke-width:1;"/>
   <line x1="571" y1="190" x2="561" y2="190" style="stroke:#0b0;stroke-width:1;"/>
   <line x1="680" y1="284" x2="571" y2="190" style="stroke:#0b0;stroke-width:1;"/>
   <line x1="682.5" y1="284" x2="686.03553390593" y2="287.53553390593" style="stroke:#0b0;stroke-width:2;"/>
   <line x1="682.5" y1="284" x2="686.03553390593" y2="280.46446609407" style="stroke:#0b0;stroke-width:2;"/>
   <line x1="566" y1="190" x2="569.53553390593" y2="193.53553390593" style="stroke:#0b0;stroke-width:2;"/>
   <line x1="566" y1="190" x2="569.53553390593" y2="186.46446609407" style="stroke:#0b0;stroke-width:2;"/>
   <line x1="690" y1="304" x2="680" y2="304" style="stroke:#0b0;stroke-width:1;"/>
   <line x1="465" y1="469" x2="455" y2="469" style="stroke:#0b0;stroke-width:1;"/>
   <line x1="680" y1="304" x2="465" y2="469" style="stroke:#0b0;stroke-width:1;"/>
   <line x1="682.5" y1="304" x2="686.03553390593" y2="307.53553390593" style="stroke:#0b0;stroke-width:2;"/>
   <line x1="682.5" y1="304" x2="686.03553390593" y2="300.46446609407" style="stroke:#0b0;stroke-width:2;"/>
   <line x1="460" y1="469" x2="463.53553390593" y2="472.53553390593" style="stroke:#0b0;stroke-width:2;"/>
   <line x1="460" y1="469" x2="463.53553390593" y2="465.46446609407" style="stroke:#0b0;stroke-width:2;"/>
   <line x1="685" y1="77" x2="675" y2="77" style="stroke:#0bf;stroke-width:1;"/>
   <line x1="680" y1="264" x2="690" y2="264" style="stroke:#0bf;stroke-width:1;"/>
   <line x1="675" y1="77" x2="680" y2="264" style="stroke:#0bf;stroke-width:1;"/>
   <line x1="677.5" y1="77" x2="681.03553390593" y2="80.535533905933" style="stroke:#0bf;stroke-width:2;"/>
   <line x1="677.5" y1="77" x2="681.03553390593" y2="73.464466094067" style="stroke:#0bf;stroke-width:2;"/>
   <line x1="685" y1="264" x2="681.46446609407" y2="267.53553390593" style="stroke:#0bf;stroke-width:2;"/>
   <line x1="685" y1="264" x2="681.46446609407" y2="260.46446609407" style="stroke:#0bf;stroke-width:2;"/>
   <line x1="685" y1="97" x2="675" y2="97" style="stroke:#cb0;stroke-width:1;"/>
   <line x1="509" y1="97" x2="499" y2="97" style="stroke:#cb0;stroke-width:1;"/>
   <line x1="675" y1="97" x2="509" y2="97" style="stroke:#cb0;stroke-width:1;"/>
   <line x1="677.5" y1="97" x2="681.03553390593" y2="100.53553390593" style="stroke:#cb0;stroke-width:2;"/>
   <line x1="677.5" y1="97" x2="681.03553390593" y2="93.464466094067" style="stroke:#cb0;stroke-width:2;"/>
   <line x1="504" y1="97" x2="507.53553390593" y2="100.53553390593" style="stroke:#cb0;stroke-width:2;"/>
   <line x1="504" y1="97" x2="507.53553390593" y2="93.464466094067" style="stroke:#cb0;stroke-width:2;"/>
   <line x1="372" y1="210" x2="362" y2="210" style="stroke:#0bf;stroke-width:1;"/>
   <line x1="226" y1="56" x2="216" y2="56" style="stroke:#0bf;stroke-width:1;"/>
   <line x1="362" y1="210" x2="226" y2="56" style="stroke:#0bf;stroke-width:1;"/>
   <line x1="364.5" y1="210" x2="368.03553390593" y2="213.53553390593" style="stroke:#0bf;stroke-width:2;"/>
   <line x1="364.5" y1="210" x2="368.03553390593" y2="206.46446609407" style="stroke:#0bf;stroke-width:2;"/>
   <line x1="221" y1="56" x2="224.53553390593" y2="59.535533905933" style="stroke:#0bf;stroke-width:2;"/>
   <line x1="221" y1="56" x2="224.53553390593" y2="52.464466094067" style="stroke:#0bf;stroke-width:2;"/>
   <line x1="561" y1="230" x2="571" y2="230" style="stroke:#c00;stroke-width:1;"/>
   <line x1="707" y1="459" x2="717" y2="459" style="stroke:#c00;stroke-width:1;"/>
   <line x1="571" y1="230" x2="707" y2="459" style="stroke:#c00;stroke-width:1;"/>
   <line x1="568.5" y1="230" x2="564.96446609407" y2="233.53553390593" style="stroke:#c00;stroke-width:2;"/>
   <line x1="568.5" y1="230" x2="564.96446609407" y2="226.46446609407" style="stroke:#c00;stroke-width:2;"/>
   <line x1="712" y1="459" x2="708.46446609407" y2="462.53553390593" style="stroke:#c00;stroke-width:2;"/>
   <line x1="712" y1="459" x2="708.46446609407" y2="455.46446609407" style="stroke:#c00;stroke-width:2;"/>
   <line x1="208" y1="160" x2="218" y2="160" style="stroke:#bbb;stroke-width:1;"/>
   <line x1="362" y1="190" x2="372" y2="190" style="stroke:#bbb;stroke-width:1;"/>
   <line x1="218" y1="160" x2="362" y2="190" style="stroke:#bbb;stroke-width:1;"/>
   <line x1="215.5" y1="160" x2="211.96446609407" y2="163.53553390593" style="stroke:#bbb;stroke-width:2;"/>
   <line x1="215.5" y1="160" x2="211.96446609407" y2="156.46446609407" style="stroke:#bbb;stroke-width:2;"/>
   <line x1="367" y1="190" x2="363.46446609407" y2="193.53553390593" style="stroke:#bbb;stroke-width:2;"/>
   <line x1="367" y1="190" x2="363.46446609407" y2="186.46446609407" style="stroke:#bbb;stroke-width:2;"/>
   <line x1="208" y1="180" x2="218" y2="180" style="stroke:#333;stroke-width:1;"/>
   <line x1="401" y1="97" x2="411" y2="97" style="stroke:#333;stroke-width:1;"/>
   <line x1="218" y1="180" x2="401" y2="97" style="stroke:#333;stroke-width:1;"/>
   <line x1="215.5" y1="180" x2="211.96446609407" y2="183.53553390593" style="stroke:#333;stroke-width:2;"/>
   <line x1="215.5" y1="180" x2="211.96446609407" y2="176.46446609407" style="stroke:#333;stroke-width:2;"/>
   <line x1="406" y1="97" x2="402.46446609407" y2="100.53553390593" style="stroke:#333;stroke-width:2;"/>
   <line x1="406" y1="97" x2="402.46446609407" y2="93.464466094067" style="stroke:#333;stroke-width:2;"/>
   <line x1="342" y1="489" x2="332" y2="489" style="stroke:#0bf;stroke-width:1;"/>
   <line x1="362" y1="190" x2="372" y2="190" style="stroke:#0bf;stroke-width:1;"/>
   <line x1="332" y1="489" x2="362" y2="190" style="stroke:#0bf;stroke-width:1;"/>
   <line x1="334.5" y1="489" x2="338.03553390593" y2="492.53553390593" style="stroke:#0bf;stroke-width:2;"/>
   <line x1="334.5" y1="489" x2="338.03553390593" y2="485.46446609407" style="stroke:#0bf;stroke-width:2;"/>
   <line x1="367" y1="190" x2="363.46446609407" y2="193.53553390593" style="stroke:#0bf;stroke-width:2;"/>
   <line x1="367" y1="190" x2="363.46446609407" y2="186.46446609407" style="stroke:#0bf;stroke-width:2;"/>
   <rect width="148" height="20" x="68" y="26" style="fill:#007;stroke:black;"/>
   <text width="148" height="20" x="73" y="40" style="fill:#fff;" font-family="Arial" font-size="16px"> oAuth</text>
   <rect width="148" height="20" x="68" y="46" style="fill:#aea;stroke:black;"/>
   <text width="148" height="20" x="73" y="60" style="fill:black;" font-family="Arial" font-size="16px">oAuthId</text>
   <rect width="148" height="20" x="68" y="66" style="fill:none;stroke:black;"/>
   <text width="148" height="20" x="73" y="80" style="fill:black;" font-family="Arial" font-size="16px">oAuthServiceName</text>
   <rect width="175" height="20" x="690" y="234" style="fill:#007;stroke:black;"/>
   <text width="175" height="20" x="695" y="248" style="fill:#fff;" font-family="Arial" font-size="16px"> post</text>
   <rect width="175" height="20" x="690" y="254" style="fill:#aea;stroke:black;"/>
   <text width="175" height="20" x="695" y="268" style="fill:black;" font-family="Arial" font-size="16px">postId</text>
   <rect width="175" height="20" x="690" y="274" style="fill:none;stroke:black;"/>
   <text width="175" height="20" x="695" y="288" style="fill:black;" font-family="Arial" font-size="16px">postProfileId</text>
   <rect width="175" height="20" x="690" y="294" style="fill:none;stroke:black;"/>
   <text width="175" height="20" x="695" y="308" style="fill:black;" font-family="Arial" font-size="16px">postVenueId</text>
   <rect width="175" height="20" x="690" y="314" style="fill:none;stroke:black;"/>
   <text width="175" height="20" x="695" y="328" style="fill:black;" font-family="Arial" font-size="16px">postContent</text>
   <rect width="175" height="20" x="690" y="334" style="fill:none;stroke:black;"/>
   <text width="175" height="20" x="695" y="348" style="fill:black;" font-family="Arial" font-size="16px">postCreatedDate</text>
   <rect width="175" height="20" x="690" y="354" style="fill:none;stroke:black;"/>
   <text width="175" height="20" x="695" y="368" style="fill:black;" font-family="Arial" font-size="16px">postEventDate</text>
   <rect width="175" height="20" x="690" y="374" style="fill:none;stroke:black;"/>
   <text width="175" height="20" x="695" y="388" style="fill:black;" font-family="Arial" font-size="16px">postImageCloudinaryId</text>
   <rect width="175" height="20" x="690" y="394" style="fill:none;stroke:black;"/>
   <text width="175" height="20" x="695" y="408" style="fill:black;" font-family="Arial" font-size="16px">postTitle</text>
   <rect width="113" height="20" x="685" y="47" style="fill:#007;stroke:black;"/>
   <text width="113" height="20" x="690" y="61" style="fill:#fff;" font-family="Arial" font-size="16px"> postTag</text>
   <rect width="113" height="20" x="685" y="67" style="fill:#aea;stroke:black;"/>
   <text width="113" height="20" x="690" y="81" style="fill:black;" font-family="Arial" font-size="16px">postTagPostId</text>
   <rect width="113" height="20" x="685" y="87" style="fill:#aea;stroke:black;"/>
   <text width="113" height="20" x="690" y="101" style="fill:black;" font-family="Arial" font-size="16px">postTagTagId</text>
   <rect width="189" height="20" x="372" y="160" style="fill:#007;stroke:black;"/>
   <text width="189" height="20" x="377" y="174" style="fill:#fff;" font-family="Arial" font-size="16px"> profile</text>
   <rect width="189" height="20" x="372" y="180" style="fill:#aea;stroke:black;"/>
   <text width="189" height="20" x="377" y="194" style="fill:black;" font-family="Arial" font-size="16px">profileId</text>
   <rect width="189" height="20" x="372" y="200" style="fill:none;stroke:black;"/>
   <text width="189" height="20" x="377" y="214" style="fill:black;" font-family="Arial" font-size="16px">profileOAuthId</text>
   <rect width="189" height="20" x="372" y="220" style="fill:none;stroke:black;"/>
   <text width="189" height="20" x="377" y="234" style="fill:black;" font-family="Arial" font-size="16px">profileTypeId</text>
   <rect width="189" height="20" x="372" y="240" style="fill:none;stroke:black;"/>
   <text width="189" height="20" x="377" y="254" style="fill:black;" font-family="Arial" font-size="16px">profileBio</text>
   <rect width="189" height="20" x="372" y="260" style="fill:none;stroke:black;"/>
   <text width="189" height="20" x="377" y="274" style="fill:black;" font-family="Arial" font-size="16px">profileImageCloudinaryId</text>
   <rect width="189" height="20" x="372" y="280" style="fill:none;stroke:black;"/>
   <text width="189" height="20" x="377" y="294" style="fill:black;" font-family="Arial" font-size="16px">profileLocation</text>
   <rect width="189" height="20" x="372" y="300" style="fill:none;stroke:black;"/>
   <text width="189" height="20" x="377" y="314" style="fill:black;" font-family="Arial" font-size="16px">profileOAuthToken</text>
   <rect width="189" height="20" x="372" y="320" style="fill:none;stroke:black;"/>
   <text width="189" height="20" x="377" y="334" style="fill:black;" font-family="Arial" font-size="16px">profileSoundCloudUser</text>
   <rect width="189" height="20" x="372" y="340" style="fill:none;stroke:black;"/>
   <text width="189" height="20" x="377" y="354" style="fill:black;" font-family="Arial" font-size="16px">profileUserName</text>
   <rect width="140" height="20" x="68" y="130" style="fill:#007;stroke:black;"/>
   <text width="140" height="20" x="73" y="144" style="fill:#fff;" font-family="Arial" font-size="16px"> profileTag</text>
   <rect width="140" height="20" x="68" y="150" style="fill:#aea;stroke:black;"/>
   <text width="140" height="20" x="73" y="164" style="fill:black;" font-family="Arial" font-size="16px">profileTagProfileId</text>
   <rect width="140" height="20" x="68" y="170" style="fill:#aea;stroke:black;"/>
   <text width="140" height="20" x="73" y="184" style="fill:black;" font-family="Arial" font-size="16px">profileTagTagId</text>
   <rect width="132" height="20" x="717" y="429" style="fill:#007;stroke:black;"/>
   <text width="132" height="20" x="722" y="443" style="fill:#fff;" font-family="Arial" font-size="16px"> profileType</text>
   <rect width="132" height="20" x="717" y="449" style="fill:#aea;stroke:black;"/>
   <text width="132" height="20" x="722" y="463" style="fill:black;" font-family="Arial" font-size="16px">profileTypeId</text>
   <rect width="132" height="20" x="717" y="469" style="fill:none;stroke:black;"/>
   <text width="132" height="20" x="722" y="483" style="fill:black;" font-family="Arial" font-size="16px">profileTypeName</text>
   <rect width="88" height="20" x="411" y="67" style="fill:#007;stroke:black;"/>
   <text width="88" height="20" x="416" y="81" style="fill:#fff;" font-family="Arial" font-size="16px"> tag</text>
   <rect width="88" height="20" x="411" y="87" style="fill:#aea;stroke:black;"/>
   <text width="88" height="20" x="416" y="101" style="fill:black;" font-family="Arial" font-size="16px">tagId</text>
   <rect width="88" height="20" x="411" y="107" style="fill:none;stroke:black;"/>
   <text width="88" height="20" x="416" y="121" style="fill:black;" font-family="Arial" font-size="16px">tagContent</text>
   <rect width="113" height="20" x="342" y="439" style="fill:#007;stroke:black;"/>
   <text width="113" height="20" x="347" y="453" style="fill:#fff;" font-family="Arial" font-size="16px"> venue</text>
   <rect width="113" height="20" x="342" y="459" style="fill:#aea;stroke:black;"/>
   <text width="113" height="20" x="347" y="473" style="fill:black;" font-family="Arial" font-size="16px">venueId</text>
   <rect width="113" height="20" x="342" y="479" style="fill:none;stroke:black;"/>
   <text width="113" height="20" x="347" y="493" style="fill:black;" font-family="Arial" font-size="16px">venueProfileId</text>
   <rect width="113" height="20" x="342" y="499" style="fill:none;stroke:black;"/>
   <text width="113" height="20" x="347" y="513" style="fill:black;" font-family="Arial" font-size="16px">venueCity</text>
   <rect width="113" height="20" x="342" y="519" style="fill:none;stroke:black;"/>
   <text width="113" height="20" x="347" y="533" style="fill:black;" font-family="Arial" font-size="16px">venueName</text>
   <rect width="113" height="20" x="342" y="539" style="fill:none;stroke:black;"/>
   <text width="113" height="20" x="347" y="553" style="fill:black;" font-family="Arial" font-size="16px">venueState</text>
   <rect width="113" height="20" x="342" y="559" style="fill:none;stroke:black;"/>
   <text width="113" height="20" x="347" y="573" style="fill:black;" font-family="Arial" font-size="16px">venueStreet1</text>
   <rect width="113" height="20" x="342" y="579" style="fill:none;stroke:black;"/>
   <text width="113" height="20" x="347" y="593" style="fill:black;" font-family="Arial" font-size="16px">venueStreet2</text>
   <rect width="113" height="20" x="342" y="599" style="fill:none;stroke:black;"/>
   <text width="113" height="20" x="347" y="613" style="fill:black;" font-family="Arial" font-size="16px">venueZip</text>
</svg>
